<?xml version="1.0" encoding="utf-8"?>
<!-- Generator: Adobe Illustrator 16.0.0, SVG Export Plug-In . SVG Version: 6.00 Build 0)  -->
<!DOCTYPE svg PUBLIC "-//W3C//DTD SVG 1.1//EN" "http://www.w3.org/Graphics/SVG/1.1/DTD/svg11.dtd">
<svg version="1.1" id="Group_1_1_" xmlns="http://www.w3.org/2000/svg" xmlns:xlink="http://www.w3.org/1999/xlink" x="0px" y="0px"
	 width="758.962px" height="103.495px" viewBox="0 0 758.962 103.495" enable-background="new 0 0 758.962 103.495"
	 xml:space="preserve">
<path fill-rule="evenodd" clip-rule="evenodd" d="M393.61,51.614c0-12.08,0-24.159,0-36.239c0-1.811-0.47-2.132-2.306-1.952
	c-1.388,0.136-2.798,0.073-4.196,0.034c-0.706-0.02-1.22-0.367-1.197-1.192c0.009-0.317-0.001-0.636-0.015-0.954
	c-0.011-0.238,0.009-0.493-0.072-0.709c-0.255-0.688-1.602-0.986-2.943-0.677c-0.854,0.197-0.97,0.819-0.93,1.564
	c0.031,0.579,0.058,1.17-0.023,1.74c-0.118,0.831-0.667,1.221-1.509,1.213c-1-0.009-2-0.013-3,0.004
	c-1.017,0.017-1.364,0.333-1.462,1.329c-0.039,0.396-0.016,0.799-0.016,1.199c0,19.239,0,38.479,0,57.718
	c0,0.24,0.005,0.48-0.002,0.72c-0.042,1.317-1.322,0.941-2.631,0.658c-1.236-0.267-1.625,0.201-2.886,0.069
	c-1.226-0.128-2.464-0.133-3.688-0.275c-1.538-0.179-2.398-1.199-2.399-2.754c-0.003-17.6-0.003-35.199,0.006-52.798
	c0-0.471,0.107-0.944,0.185-1.413c0.2-1.208-0.328-1.81-1.571-1.788c-3.912,0.071-7.823,0.153-11.735,0.198
	c-0.872,0.01-1.747-0.091-2.616-0.179c-1.222-0.123-1.822,0.497-1.622,1.674c0.086,0.507,0.143,1.026,0.143,1.54
	c0.007,17.599-0.006,35.199,0.025,52.798c0.003,1.754-0.604,2.603-2.661,2.725c-0.877,0.052-1.759,0.017-2.639,0.009
	c-1.61-0.015-2.235-0.633-2.237-2.255c-0.007-5.68-0.002-11.359-0.002-17.04c0-0.28-0.016-0.561,0.003-0.839
	c0.058-0.868-0.341-1.235-1.206-1.223c-1.64,0.023-3.28,0.01-4.92,0c-1.593-0.01-1.8-0.219-1.808-1.803
	c-0.007-1.44,0.023-2.881-0.014-4.32c-0.026-0.985-0.482-1.327-1.457-1.301c-3.19,0.086-6.381,0.172-9.572,0.21
	c-1.03,0.012-2.064-0.1-3.092-0.204c-1.456-0.148-2.022,0.443-1.769,1.886c0.075,0.429,0.146,0.866,0.148,1.3
	c0.013,2.8,0.012,5.6,0.005,8.399c-0.004,1.617-0.424,2.029-2.069,2.071c-0.2,0.005-0.4,0.002-0.6,0.002
	c-5.959,0-11.919,0.005-17.879-0.008c-0.632-0.001-1.269-0.085-1.896-0.176c-1.251-0.181-1.773,0.244-1.776,1.556
	c-0.011,4.52-0.003,9.04-0.005,13.56c0,1.746-0.123,1.869-1.814,1.879c-2.599,0.014-5.198,0.036-7.797,0.041
	c-1.36,0.002-1.775-0.445-1.772-1.79c0.009-4.01,0.006-8.019,0.008-12.028c0-1.102,0-2.203,0.001-3.305
	c0-3.821-0.056-7.645,0.028-11.464c0.034-1.528-0.41-1.915-2.128-1.915c-2.742,0-5.484-0.01-8.227,0.006
	c-0.512,0.003-1.023,0.151-1.535,0.154c-3.239,0.018-6.478,0.029-9.716,0.007c-0.992-0.007-1.984-0.116-2.975-0.189
	c-0.929-0.069-1.302,0.369-1.286,1.28c0.027,1.52,0.021,3.04,0.001,4.56c-0.016,1.219-0.366,1.586-1.569,1.588
	c-5.96,0.011-11.92,0.026-17.88-0.007c-2.384-0.013-2.382-0.068-2.382,2.361c0.001,4.24,0.003,8.48-0.002,12.72
	c-0.002,1.571-0.159,1.734-1.713,1.735c-9.12,0.004-18.239,0.002-27.359,0.002c-0.24,0-0.48-0.005-0.72,0
	c-1.225,0.024-1.396,0.176-1.404,1.383c-0.014,1.84,0.006,3.68-0.007,5.52c-0.009,1.267-0.222,1.496-1.462,1.498
	c-9.439,0.008-18.879,0.008-28.319,0.001c-1.298-0.001-1.498-0.222-1.499-1.582c-0.007-4.64-0.052-9.28,0.024-13.919
	c0.026-1.524-0.195-2.768-1.443-3.815c-1.027-0.862-1.797-2.026-2.803-2.918c-0.489-0.433-1.256-0.77-1.9-0.775
	c-7.12-0.054-14.239-0.038-21.359-0.033c-1.233,0.001-1.438,0.216-1.466,1.486c-0.019,0.879-0.003,1.76-0.004,2.64
	c-0.003,2.079-0.035,2.112-2.056,2.113c-0.44,0.001-0.88-0.007-1.32,0c-1.288,0.02-1.429,0.153-1.431,1.473
	c-0.006,4.56-0.001,9.12-0.001,13.68c0,0.36,0.004,0.72-0.001,1.08c-0.021,1.522-0.249,1.766-1.722,1.768
	c-4.36,0.006-8.72,0.008-13.08,0c-1.355-0.002-1.758-0.407-1.838-1.771c-0.081-1.373-0.283-1.579-1.668-1.582
	c-3.44-0.005-6.88-0.005-10.32,0.011c-1.452,0.007-1.923-0.417-1.926-1.916c-0.009-6.12-0.022-12.24,0.006-18.359
	c0.01-2.111,0.111-4.223,0.218-6.332c0.072-1.412-1.07-1.833-1.961-2.274c-2.117-1.05-4.336-1.891-6.489-2.871
	c-1.976-0.9-3.911-1.89-5.884-2.796c-0.414-0.189-0.916-0.258-1.377-0.26c-3.44-0.021-6.88-0.01-10.319-0.013
	c-1.963-0.002-2.533-0.539-2.507-2.455c0.012-0.952,0.139-1.901,0.191-2.854c0.021-0.396-0.026-0.796-0.027-1.195
	c0-0.983-0.071-1.975,0.033-2.948c0.135-1.263-0.248-1.838-1.529-1.811c-2.072,0.045-4.146,0.111-6.213,0.259
	c-1.636,0.118-1.979,0.552-1.982,2.202c-0.008,3.36,0.001,6.72-0.002,10.08c-0.001,1.719-0.363,2.075-2.126,2.078
	c-3.16,0.005-6.32,0.01-9.479-0.007c-0.512-0.003-1.024-0.112-1.536-0.178c-1.156-0.149-1.741,0.389-1.732,1.523
	c0.081,11.413,0.158,22.826,0.219,34.238c0.009,1.738-0.686,2.451-2.416,2.593c-1.189,0.097-2.382,0.245-3.57,0.222
	c-2.488-0.048-4.915,0.32-7.342,0.809c-1.124,0.226-2.282,0.376-3.427,0.386c-3.073,0.025-6.114,0.146-9.13,0.895
	c-1.407,0.349-2.927,0.291-4.398,0.316c-2.595,0.046-5.153,0.266-7.695,0.85c-1.303,0.299-2.685,0.277-4.034,0.353
	c-1.213,0.068-1.399,0.2-1.405,1.403C9.93,92.4,9.944,95.28,9.939,98.16c-0.002,1.319-0.371,1.878-1.254,1.952
	c-1.044,0.087-2.007-0.707-2.172-1.802c-0.03-0.196-0.019-0.399-0.019-0.599c-0.001-3.44-0.009-6.88,0.002-10.32
	c0.006-1.887,0.687-2.605,2.568-2.698c0.918-0.045,1.843,0.038,2.759-0.029c1.424-0.103,2.841-0.293,4.263-0.43
	c2.688-0.259,5.376-0.501,8.063-0.761c1.382-0.133,2.762-0.293,4.143-0.436c2.487-0.256,4.97-0.599,7.464-0.73
	c1.952-0.103,3.861-0.272,5.793-0.653c2.208-0.434,4.505-0.437,6.767-0.564c1.462-0.083,1.74-0.385,1.479-1.846
	c-0.076-0.429-0.097-0.872-0.097-1.308c-0.005-10.919-0.004-21.839-0.004-32.759c0-0.28-0.016-0.562,0.013-0.839
	c0.133-1.292,0.529-1.659,1.832-1.662c3.64-0.007,7.28-0.002,10.92-0.004c0.36,0,0.724,0.023,1.079-0.021
	c1.004-0.125,1.292-0.628,1.261-1.645c-0.108-3.469-0.159-6.94-0.216-10.411c-0.012-0.746,0.427-1.226,1.123-1.343
	c2.111-0.355,4.223-0.765,6.352-0.943c2.46-0.207,4.939-0.209,7.411-0.265c1.429-0.032,1.513,0.072,1.516,1.471
	c0.006,2.64-0.001,5.28,0.002,7.919c0,0.359-0.018,0.729,0.058,1.076c0.169,0.774,0.628,1.072,1.474,1.029
	c1.538-0.078,3.083-0.014,4.625-0.005c0.919,0.005,1.84,0.043,2.759,0.02c1.761-0.044,3.344,0.422,4.882,1.309
	c1.292,0.744,2.745,1.203,4.104,1.836c1.212,0.565,2.384,1.215,3.589,1.796c1.098,0.529,2.222,1.004,3.323,1.527
	c0.783,0.373,1.527,0.83,2.322,1.172c0.968,0.417,1.185,1.154,1.182,2.121c-0.02,7.6-0.012,15.2-0.011,22.799
	c0,1.952,0.662,2.402,2.602,2.133c1.374-0.19,2.788-0.099,4.185-0.117c1.141-0.015,2.282-0.003,3.423-0.004
	c0.52,0,1.04-0.005,1.56-0.003c1.719,0.008,2.081,0.362,2.153,2.094c0.052,1.26,0.304,1.365,1.634,1.308
	c2.116-0.091,4.238-0.041,6.358-0.047c1.72-0.005,1.759-0.039,1.76-1.746c0.001-4.76-0.003-9.52,0.001-14.279
	c0.002-1.633,0.341-1.965,1.959-1.976c0.52-0.004,1.04,0.01,1.56-0.003c1.228-0.03,1.632-0.538,1.493-1.736
	c-0.109-0.946-0.171-1.9-0.194-2.853c-0.019-0.799,0.26-1.401,1.214-1.442c0.553-0.024,1.102-0.193,1.652-0.194
	c7.959-0.013,15.919-0.006,23.879-0.012c1.159-0.001,2.171,0.231,2.998,1.165c1.763,1.991,3.58,3.934,5.396,5.875
	c0.566,0.605,0.702,1.292,0.698,2.085c-0.02,4.08-0.011,8.16-0.009,12.24c0.001,1.81,0.247,2.003,2.047,1.721
	c0.392-0.062,0.798-0.041,1.197-0.042c5.919-0.002,11.839-0.006,17.759,0.006c0.592,0.001,1.187,0.086,1.774,0.173
	c1.063,0.157,1.593-0.248,1.61-1.348c0.026-1.68,0.003-3.36,0.008-5.04c0.006-1.773,0.417-2.194,2.173-2.195
	c9.04-0.003,18.08-0.001,27.119-0.002c0.36,0,0.723,0.022,1.079-0.018c0.716-0.082,1.042-0.514,1.013-1.228
	c-0.062-1.512-0.162-3.024-0.176-4.537c-0.028-3.04-0.012-6.08-0.006-9.119c0.003-1.601,0.292-1.899,1.872-1.9
	c6-0.006,12-0.002,18-0.003c0.32,0,0.642,0.017,0.959-0.009c0.949-0.08,1.291-0.582,1.214-1.529
	c-0.109-1.347-0.177-2.701-0.188-4.052c-0.008-0.883,0.377-1.543,1.372-1.65c0.512-0.055,1.021-0.182,1.532-0.182
	c9.12-0.011,18.239-0.008,27.359-0.008c0.16,0,0.32-0.003,0.48,0.003c1.464,0.057,1.725,0.319,1.726,1.791
	c0.002,8.88,0.004,17.759-0.001,26.639c-0.001,2.195,0.213,1.999,2.073,2.243c2.531,0.333,2.736-0.058,2.676-2.58
	c-0.099-4.117-0.055-8.239-0.016-12.358c0.014-1.479,0.687-2.056,2.198-2.058c6.6-0.007,13.2-0.003,19.8-0.003
	c2.067,0,2.21-0.145,2.211-2.278c0.002-3.2,0.028-6.4-0.016-9.6c-0.014-0.981,0.159-1.644,1.308-1.653
	c0.513-0.004,1.025-0.137,1.539-0.138c5.44-0.011,10.879-0.014,16.319,0.002c0.671,0.002,1.348,0.093,2.011,0.205
	c1.218,0.205,1.478,0.478,1.472,1.737c-0.007,1.271-0.088,2.545-0.199,3.812c-0.099,1.139,0.286,1.642,1.454,1.662
	c1.24,0.022,2.482-0.04,3.719,0.021c0.78,0.038,1.569,0.17,2.324,0.373c0.722,0.193,1.095-0.066,1.211-0.723
	c0.083-0.467,0.057-0.956,0.057-1.436c0.002-10.959,0.001-21.919,0.001-32.879c0-0.44-0.01-0.881,0.019-1.319
	c0.049-0.751,0.463-1.165,1.217-1.214c0.319-0.021,0.64-0.012,0.96-0.012c6.56-0.001,13.12-0.001,19.679-0.001
	c1.978,0.001,2.222,0.239,2.222,2.195c0.001,18.2,0,36.399,0,54.598c0,0.32,0.005,0.64,0.004,0.96
	c-0.002,0.691,0.346,1.002,1.032,1.039c0.832,0.044,1.662,0.14,2.492,0.218c0.929,0.088,1.47-0.559,1.393-1.617
	c-0.087-1.19-0.196-2.383-0.196-3.574c-0.013-18-0.009-35.999-0.008-53.998c0-0.4-0.012-0.801,0.009-1.2
	c0.048-0.89,0.526-1.448,1.413-1.473c1.032-0.028,2.076,0.003,3.1,0.127c1.234,0.149,1.761-0.386,1.637-1.635
	c-0.073-0.729-0.025-1.514,0.183-2.209c0.104-0.35,0.684-0.787,1.054-0.792c2.632-0.035,5.265,0.012,7.896,0.074
	c0.995,0.023,1.336,0.664,1.359,1.604c0.046,1.794,0.11,1.832,1.956,1.834c1.44,0.001,2.88-0.014,4.319,0.004
	c1.264,0.016,1.603,0.376,1.629,1.662c0.006,0.28,0.002,0.56,0.002,0.84c0,23.64,0.002,47.279-0.007,70.918
	c0,0.672-0.083,1.348-0.176,2.015c-0.144,1.026,0.222,1.574,1.243,1.589c2.399,0.036,4.8,0.037,7.199,0.005
	c1.042-0.014,1.256-0.294,1.256-1.442c0.001-11.04,0-22.08-0.013-33.119c-0.002-1.674,0.685-2.457,2.379-2.642
	c0.512-0.057,1.063-0.099,1.511-0.32c1.041-0.516,2.142-0.732,3.244-1.026c0.853-0.228,1.524-1.285,2.182-2.054
	c0.948-1.111,1.78-2.322,2.732-3.43c0.212-0.247,0.715-0.339,1.085-0.341c3.84-0.023,7.681-0.033,11.52,0.012
	c0.462,0.005,0.94,0.314,1.37,0.556c0.27,0.15,0.486,0.417,0.685,0.666c1.887,2.372,4.564,3.015,7.353,3.642
	c1.069,0.241,2.145,1.219,2.854,2.139c1.545,2.003,2.884,4.169,4.243,6.309c0.295,0.463,0.447,1.097,0.449,1.654
	c0.029,7.799,0.038,15.599,0.001,23.399c-0.007,1.257,0.306,2.159,1.376,2.951c2.079,1.538,4.029,3.248,6.039,4.879
	c0.795,0.646,2.978,0.85,3.718,0.243c0.286-0.234,0.4-0.802,0.415-1.225c0.074-2.183,0.077-4.369,0.138-6.553
	c0.021-0.76,0.517-1.161,1.185-1.496c1.229-0.614,2.389-1.365,3.604-2.005c1.112-0.585,2.271-1.083,3.391-1.652
	c0.953-0.484,1.945-0.929,2.801-1.554c0.809-0.59,1.127-1.512,0.988-2.551c-0.089-0.668-0.191-1.341-0.191-2.012
	c-0.013-9.28,0.004-18.559-0.021-27.839c-0.005-1.65,0.438-2.997,1.723-4.129c2.354-2.076,4.639-4.23,6.899-6.407
	c0.381-0.367,0.674-0.998,0.704-1.524c0.093-1.595,0.022-3.198,0.041-4.798c0.015-1.214,0.453-1.658,1.663-1.666
	c2.32-0.015,4.641,0.01,6.96-0.01c1.483-0.013,2.015,0.925,1.94,2.392c-0.075,1.504-0.323,3.002-0.369,4.506
	c-0.031,0.988,0.401,1.743,1.355,2.323c2.268,1.38,4.442,2.913,6.651,4.389c0.787,0.526,1.534,1.118,2.354,1.585
	c0.737,0.42,0.906,1,0.902,1.788c-0.024,4.4-0.013,8.8-0.012,13.2c0,0.36-0.017,0.722,0.014,1.08c0.099,1.167,0.314,1.38,1.472,1.38
	c10.76,0.005,21.52,0.005,32.279,0c1.297,0,1.622-0.325,1.665-1.62c0.021-0.6,0.058-1.206-0.005-1.799
	c-0.145-1.374,0.624-2.272,1.581-3.021c1.499-1.174,3.049-2.285,4.594-3.399c0.793-0.571,1.205-1.221,0.861-2.244
	c-0.134-0.399-0.062-0.871-0.062-1.31c-0.003-5.56,0.092-11.123-0.054-16.678c-0.05-1.902,0.874-3.222,1.736-4.668
	c0.646-1.082,1.226-2.214,1.97-3.223c0.89-1.205,1.588-2.687,3.605-2.394c1.371,0.198,2.795,0.013,4.194,0.042
	c0.824,0.018,1.278-0.402,1.729-1.043c0.842-1.199,1.734-2.378,2.736-3.443c0.35-0.371,1.082-0.523,1.644-0.532
	c3.199-0.048,6.4-0.065,9.599,0.002c1.002,0.021,1.913,0.324,2.839,0.976c1.618,1.14,3.327,2.153,5.582,1.931
	c2.535-0.25,5.118,0.024,7.673-0.082c2.306-0.096,2.439,0.782,2.436,2.41c-0.02,8.92-0.01,17.839-0.01,26.759
	c0,0.28-0.014,0.561,0.003,0.84c0.05,0.886,0.437,1.187,1.285,1.158c2.352-0.08,4.705-0.147,7.058-0.167
	c1.228-0.01,1.713,0.516,1.724,1.778c0.021,2.28,0.003,4.56,0.008,6.84c0.004,1.663,0.258,1.919,1.967,1.922
	c4.399,0.007,8.8,0.002,13.199,0.002c9.079,0,18.159-0.001,27.239,0.001c1.992,0.001,2.289,0.277,2.998,2.185
	c0.411,1.107,1.003,2.146,1.511,3.218c0.651,1.375,1.291,2.756,1.955,4.125c0.396,0.816,0.744,1.675,1.276,2.396
	c0.247,0.334,0.877,0.524,1.34,0.535c2.198,0.054,4.399,0.02,6.6,0.025c1.486,0.003,1.897,0.413,1.914,1.929
	c0.015,1.32-0.01,2.641,0.007,3.96c0.016,1.26,0.292,1.527,1.583,1.542c1.239,0.015,2.484,0.066,3.718-0.024
	c0.647-0.048,1.373-0.222,1.897-0.581c2.48-1.703,4.892-3.506,7.358-5.229c0.362-0.253,0.889-0.384,1.339-0.384
	c10.16-0.021,20.319-0.013,30.479-0.023c0.665-0.001,1.102,0.217,1.462,0.809c1.497,2.46,3.053,4.884,4.564,7.335
	c0.58,0.939,1.055,1.946,1.671,2.859c0.232,0.344,0.702,0.601,1.116,0.729c0.403,0.125,0.872,0.039,1.312,0.039
	c11.279,0,22.559,0,33.838,0c0.32,0,0.641-0.006,0.961,0.002c1.98,0.054,2.294,0.37,2.294,2.302c0,4.84,0.001,9.68-0.001,14.52
	c0,0.953-0.126,1.81-1.189,2.239c-1.324,0.535-2.241,0.008-2.249-1.426c-0.02-4.04-0.007-8.08-0.009-12.12
	c-0.001-0.36,0.023-0.725-0.025-1.078c-0.139-0.999-0.562-1.277-1.546-1.116c-0.469,0.076-0.95,0.112-1.426,0.112
	c-10.8,0.006-21.599,0.005-32.398,0.005c-1.54,0-2.61-0.777-3.243-2.159c-0.445-0.97-1.027-1.878-1.576-2.797
	c-1.074-1.799-2.214-3.56-3.235-5.388c-0.553-0.991-1.271-1.429-2.397-1.427c-9.159,0.02-18.319,0.017-27.479,0.003
	c-0.806-0.001-1.421,0.284-2.069,0.753c-2.012,1.457-4.183,2.708-6.104,4.271c-1.234,1.004-2.513,1.011-3.903,1.003
	c-2.159-0.013-4.319,0.007-6.479-0.01c-1.35-0.01-1.719-0.364-1.697-1.709c0.022-1.352,0.108-2.703,0.204-4.052
	c0.064-0.923-0.349-1.403-1.469-1.428c-1.8-0.041-3.6-0.009-5.399-0.016c-1.448-0.005-1.628-0.213-2.198-1.527
	c-0.577-1.329-1.317-2.586-1.964-3.886c-0.472-0.949-0.917-1.91-1.356-2.874c-0.508-1.11-1.056-2.206-1.474-3.348
	c-0.364-0.994-1.246-1.011-1.958-1.03c-1.949-0.052-3.902,0.087-5.854,0.125c-0.916,0.018-1.832-0.016-2.747-0.044
	c-0.235-0.007-0.47-0.126-0.703-0.12c-1.974,0.047-3.946,0.123-5.92,0.159c-0.43,0.008-0.86-0.156-1.291-0.159
	c-2.542-0.017-5.083-0.039-7.624-0.001c-2.412,0.035-4.823,0.156-7.235,0.211c-1.381,0.031-2.763,0.005-4.145,0.005
	c-2.142,0-4.283,0.01-6.424-0.003c-1.839-0.011-2.451-0.629-2.454-2.445c-0.004-2.08,0.001-4.16-0.002-6.24
	c-0.002-1.58-0.275-1.855-1.903-1.863c-2.04-0.011-4.08,0.005-6.12-0.004c-1.604-0.007-2.056-0.457-2.057-2.071
	c-0.004-9.08-0.002-18.159-0.002-27.239c0-1.838-0.264-1.862-2.151-1.766c-2.579,0.132-5.19,0.075-7.756-0.196
	c-0.988-0.104-1.961-0.924-2.812-1.585c-0.803-0.624-1.646-0.963-2.62-0.972c-2.68-0.024-5.36-0.01-8.04-0.009
	c-0.976,0-1.688,0.317-2.256,1.235c-0.748,1.21-1.698,2.302-2.638,3.379c-0.237,0.272-0.761,0.398-1.158,0.411
	c-1.479,0.047-2.959,0.022-4.439,0.021c-1.169-0.002-2.031,0.375-2.571,1.544c-0.474,1.026-1.263,1.903-1.785,2.912
	c-0.314,0.606-0.534,1.337-0.538,2.013c-0.038,6.56-0.057,13.12,0.008,19.679c0.013,1.258-0.514,1.992-1.44,2.669
	c-1.732,1.267-3.44,2.568-5.109,3.917c-0.278,0.226-0.416,0.757-0.43,1.153c-0.051,1.438-0.008,2.879-0.025,4.319
	c-0.021,1.695-0.443,2.103-2.157,2.103c-12.64,0.002-25.279,0.002-37.919,0c-1.845,0-2.24-0.398-2.24-2.242
	c-0.002-4.96-0.022-9.92,0.017-14.88c0.01-1.225-0.281-2.06-1.458-2.718c-1.691-0.947-3.229-2.169-4.84-3.262
	c-1.244-0.844-2.443-1.778-3.767-2.475c-1.273-0.67-1.27-1.693-1.195-2.837c0.071-1.111,0.14-2.222,0.196-3.334
	c0.038-0.763-0.376-1.049-1.103-1.077c-2.855-0.114-2.541,0.514-2.364,2.455c0.179,1.974-0.587,3.271-2.013,4.508
	c-2.105,1.828-4.033,3.859-6.09,5.746c-0.963,0.883-1.317,1.892-1.313,3.176c0.029,10.319-0.038,20.64,0.068,30.958
	c0.019,1.778-0.79,2.628-2.11,3.345c-2.157,1.171-4.323,2.327-6.485,3.489c-0.872,0.469-1.711,1.02-2.625,1.383
	c-0.779,0.309-0.843,0.842-0.839,1.517c0.012,2.32,0.01,4.64,0.005,6.959c-0.004,1.839-0.337,2.169-2.159,2.171
	c-1.28,0.001-2.568-0.089-3.838,0.025c-1.358,0.121-2.401-0.431-3.365-1.236c-2.661-2.22-5.272-4.501-7.972-6.672
	c-0.795-0.639-1.001-1.329-0.999-2.264c0.02-7.72-0.072-15.441,0.071-23.158c0.034-1.863-0.823-3.152-1.649-4.557
	c-0.641-1.09-1.382-2.121-2.095-3.167c-0.129-0.189-0.31-0.404-0.512-0.472c-1.528-0.507-3.044-1.085-4.609-1.43
	c-1.193-0.263-2.138-0.842-2.996-1.621c-0.495-0.449-0.86-1.046-1.373-1.47c-0.336-0.278-0.828-0.51-1.254-0.516
	c-3.159-0.042-6.319-0.013-9.479-0.03c-0.673-0.004-1.093,0.27-1.472,0.821c-0.766,1.11-1.53,2.242-2.446,3.223
	c-1.081,1.158-2.486,1.784-4.094,1.987c-0.729,0.092-1.492,0.313-2.118,0.682c-0.411,0.242-0.682,0.823-0.871,1.309
	c-0.137,0.348-0.039,0.79-0.039,1.189c-0.001,10.959,0,21.919,0,32.879c0,0.28,0.004,0.56-0.004,0.84
	c-0.034,1.26-0.229,1.472-1.49,1.476c-4.239,0.009-8.479,0.003-12.719,0.004c-0.04,0-0.08,0-0.12-0.001
	c-1.27-0.036-1.713-0.442-1.826-1.712c-0.035-0.397-0.014-0.799-0.014-1.199C393.61,75.613,393.61,63.613,393.61,51.614z"/>
</svg>
