<?xml version="1.0" encoding="utf-8"?>
<!-- Generator: Adobe Illustrator 16.0.0, SVG Export Plug-In . SVG Version: 6.00 Build 0)  -->
<!DOCTYPE svg PUBLIC "-//W3C//DTD SVG 1.1//EN" "http://www.w3.org/Graphics/SVG/1.1/DTD/svg11.dtd">
<svg version="1.1" id="Layer_1" xmlns="http://www.w3.org/2000/svg" xmlns:xlink="http://www.w3.org/1999/xlink" x="0px" y="0px"
	 width="1166px" height="721.464px" viewBox="0 -242.833 1166 721.464" enable-background="new 0 -242.833 1166 721.464"
	 xml:space="preserve">
<path fill="#992120" d="M-66.414,527.759"/>
<polygon fill="#005AFF" points="126.613,12.619 337.875,-99.614 375.601,28.653 "/>
<polygon fill="#005AFF" points="894.573,-220.061 1112.062,-156.194 980.016,-73.341 "/>
<polygon fill="#005AFF" points="1031.068,249.142 944.072,193.644 941.073,265.64 "/>
<polygon fill="#FFBD30" points="594.59,360.136 705.586,192.144 713.084,387.134 "/>
<polyline fill="#169AFC" points="48.171,138.31 213.744,383.947 148.542,429.819 "/>
<path fill="none" stroke="#005AFF" stroke-width="16.6054" stroke-miterlimit="10" d="M583.325-75.633
	c0,0-26.58-24.594,5.932-63.909c32.514-39.312,6.465-69.63,6.465-69.63"/>
<path fill="none" stroke="#169AFC" stroke-width="16.6054" stroke-miterlimit="10" d="M1138.622,141.457
	c0,0-35.781-5.572-30.745-56.34c5.038-50.768-33.498-61.386-33.498-61.386"/>
<path fill="none" stroke="#FFBD30" stroke-width="16.6054" stroke-miterlimit="10" d="M67.654-64.253c0,0-17.746-31.566,25.266-59
	c43.013-27.432,27.531-64.283,27.531-64.283"/>
<path fill="none" stroke="#005AFF" stroke-width="16.6054" stroke-miterlimit="10" d="M449.964,328.755
	c0,0,5.539,35.786-44.365,46.381c-49.904,10.593-48.338,50.534-48.338,50.534"/>
<path fill="none" stroke="#005AFF" stroke-width="16.6054" stroke-miterlimit="10" d="M934.594,420.677
	c0,0-33.224,14.405-56.088-31.201c-22.863-45.606-61.111-33.995-61.111-33.995"/>
<polygon fill="#169AFC" points="809.065,-101.345 722.069,-156.843 719.07,-84.847 "/>
</svg>
